<?xml version="1.0" encoding="UTF-8" standalone="no"?>
<!-- Created with Inkscape (http://www.inkscape.org/) -->

<svg
   width="512"
   height="512"
   viewBox="0 0 512 512"
   version="1.1"
   id="svg1"
   inkscape:version="1.4.2 (f4327f4, 2025-05-13)"
   sodipodi:docname="icon.svg"
   xml:space="preserve"
   inkscape:export-filename="icon.png"
   inkscape:export-xdpi="96"
   inkscape:export-ydpi="96"
   xmlns:inkscape="http://www.inkscape.org/namespaces/inkscape"
   xmlns:sodipodi="http://sodipodi.sourceforge.net/DTD/sodipodi-0.dtd"
   xmlns="http://www.w3.org/2000/svg"
   xmlns:svg="http://www.w3.org/2000/svg"><sodipodi:namedview
     id="namedview1"
     pagecolor="#ffffff"
     bordercolor="#000000"
     borderopacity="0.25"
     inkscape:showpageshadow="2"
     inkscape:pageopacity="0.0"
     inkscape:pagecheckerboard="0"
     inkscape:deskcolor="#d1d1d1"
     inkscape:document-units="px"
     inkscape:zoom="1.1145218"
     inkscape:cx="355.75796"
     inkscape:cy="301.02596"
     inkscape:window-width="1920"
     inkscape:window-height="1009"
     inkscape:window-x="-8"
     inkscape:window-y="-8"
     inkscape:window-maximized="1"
     inkscape:current-layer="layer1"
     inkscape:export-bgcolor="#ffffffff" /><defs
     id="defs1" /><g
     inkscape:label="Layer 1"
     inkscape:groupmode="layer"
     id="layer1"><path
       style="fill:#2978c2;fill-opacity:1"
       d="m 43.348319,338.2404 17.13011,29.50186 1.90335,2.37918 3.80669,0.15861 1.42751,-2.69641 v -2.85501 l -9.83395,-14.90955 26.32961,-8.40644 2.22057,2.22057 2.5378,-0.15861 -0.63445,-2.5378 69.472111,-24.42627 6.02727,8.72367 9.67534,7.13755 16.33705,13.64064 15.7026,11.7373 11.89591,5.55143 9.67534,3.01363 h 7.45477 l 5.55143,-1.42751 1.74473,-3.01363 -1.11029,-6.18588 -4.75836,-9.35811 -8.40644,-10.78563 -9.83396,-8.56505 -14.27509,-9.67534 -16.81289,-11.42008 19.18359,-7.04585 6.28072,1.7945 8.97246,0.67293 10.54264,0.67293 11.21557,-0.22431 7.17797,4.93485 9.19677,5.15917 8.29952,4.26191 12.78575,6.28073 10.99126,3.81329 9.64539,1.57018 9.6454,-1.34587 7.62659,-2.24311 6.72934,-4.93486 24.67426,6.95366 5.83209,1.34587 0.67294,6.05641 8.29952,2.24311 0.22431,-2.24311 -4.71054,-1.34587 v -3.36467 l 26.69307,6.28072 15.92611,3.14036 15.47749,1.79449 h 13.23437 l 10.99126,-0.22431 h 4.03761 l 13.01006,5.15916 8.74815,3.14036 0.67293,-1.57018 -11.66419,-4.71054 -12.11282,-5.38347 -5.38347,-10.54264 -8.97246,-10.76695 -8.97246,-10.54264 -7.8509,-6.72934 -8.97246,-6.72935 2.01881,-2.69173 -1.57019,-0.67294 -1.79449,2.24312 -16.15042,-10.54264 -0.22431,-1.57018 -7.17797,-2.24311 -9.41779,-5.3792 7.13754,-2.37918 3.17225,-3.17224 -3.33086,-6.02727 -8.88228,-7.61338 -9.99256,-6.5031 -16.33705,-6.66171 -16.81289,-4.12391 -13.48203,-3.17224 -2.69641,-3.01363 35.87381,-52.78214 4.93485,-0.11215 0.11216,-3.02821 -3.14036,0.33647 6.61718,-10.31833 9.08462,0.89725 11.43988,1.12156 h 7.8509 l 3.14036,-2.69174 -0.89724,-1.90665 -2.24312,-1.34587 -46.43247,-3.58898 -3.58898,1.34587 -2.35527,2.0188 1.0094,2.13096 2.57958,0.33647 -5.60778,3.0282 -3.92545,0.22431 c 0,0 0,0.89725 0.44862,1.0094 0.44862,0.11216 2.91605,0.33647 2.91605,0.33647 l -6.16857,3.47683 h -1.90664 l -0.22432,1.57018 -9.53323,6.16856 -17.49629,11.55204 -52.19773,35.14511 -13.87856,-2.37919 0.63445,-1.58612 20.30235,-14.4337 7.21686,-5.1549 -3.72739,-1.42751 -5.47212,-0.55514 -8.00991,1.50682 -7.69269,3.48946 -11.65799,4.59976 -18.87485,7.53407 -4.12391,1.82404 1.74473,1.66543 -1.11028,0.71375 -11.34077,-7.29615 -9.67534,-4.75837 -55.43495,-64.63445 -9.51672,1.74474 1.4275,4.59975 h 2.85502 l 24.90211,35.84634 13.95787,19.5093 -1.58612,1.42751 3.01363,5.39281 2.22057,2.29988 3.80669,6.97893 4.36183,1.42751 -4.04461,3.33085 -4.04461,5.78935 -1.11028,4.12391 0.39653,6.02726 1.2689,4.12392 1.18959,1.11029 -5.43368,0.50395 -3.98152,-1.40194 -4.48623,4.31799 -4.09369,3.64506 -1.96272,-0.67293 -8.75096,6.77267 -21.72986,18.08179 -7.930608,8.08922 -3.9653,6.26518 0.31722,1.74473 2.14126,0.87237 0.63445,1.11028 59.241638,-49.32837"
       id="path3" /><path
       style="fill:#539be2;fill-opacity:1"
       d="m 311.87868,230.70137 13.48203,3.17224 16.81289,4.12391 8.16852,3.33086 13.16481,6.5824 9.43742,7.05824 6.10657,6.82033 1.66543,3.01363 -6.74102,4.36183 -3.56877,1.18959 -14.63952,-8.00991 -19.6679,-7.45477 -17.44734,-6.82032 -12.68897,-5.55143 z"
       id="path4" /><path
       style="fill:#539be2;fill-opacity:1"
       d="m 157.70767,316.51053 6.02727,8.72367 41.71499,32.51549 11.89591,5.55143 9.67534,3.01363 h 7.45477 l 5.55143,-1.42751 1.74473,-3.01363 -1.11029,-6.18588 -4.75836,-9.35811 -8.40644,-10.78563 -9.83396,-8.56505 -17.44265,-11.82689 -13.64533,-9.26853 z"
       id="path2" /></g></svg>
